<svg width="68" height="83" viewBox="0 0 68 83" fill="none" xmlns="http://www.w3.org/2000/svg">
<path d="M6.62305 72.3312V52.4932H13.0662L13.2546 52.5079L13.4391 52.5118L13.7991 52.5337L13.9946 52.5613L14.1437 52.56L14.3482 52.5928L14.4954 52.6063L14.6818 52.6449L14.8355 52.6667L15.0187 52.7162L15.157 52.74L15.344 52.7998L15.4655 52.8236L15.6353 52.8654L15.7915 52.9175L15.9445 52.9843L16.0737 53.0236L16.2312 53.0923L16.363 53.1573L16.491 53.2042L16.6376 53.2769L16.7784 53.3669L17.0259 53.491L17.166 53.5842L17.2818 53.6632L17.3949 53.7333L17.5318 53.8349L17.7324 54.0175L17.9549 54.1956L18.0796 54.3499L18.1548 54.4026L18.2705 54.5337L18.4473 54.7498L18.5187 54.8558L18.6023 54.9503L18.6871 55.1239L18.7514 55.2081L18.8273 55.3348L18.9475 55.5778L19.0137 55.6935L19.078 55.8536L19.1307 55.9584L19.1886 56.1146L19.267 56.3937L19.3153 56.5139L19.3461 56.6862L19.3776 56.8077L19.4213 56.9543L19.4284 57.151L19.4554 57.2712L19.4786 57.4307L19.5094 57.7463L19.5197 57.8974L19.5107 58.0935L19.5197 58.233L19.5126 58.4104L19.5113 58.719L19.4811 59.0508L19.4245 59.3574L19.422 59.4925L19.3461 59.7908L19.3249 59.9251L19.2812 60.0788L19.204 60.2356L19.197 60.3257L19.0793 60.6259L19.0227 60.7487L18.9514 60.8966L18.9025 61.0026L18.8337 61.1312L18.7804 61.2444L18.6601 61.3935L18.6241 61.4681L18.5091 61.6076L18.4647 61.6918L18.3451 61.8256L18.2828 61.9149L18.185 62.0358L17.8623 62.3463L17.7215 62.4498L17.6669 62.518L17.5151 62.6202L17.3962 62.7057L17.294 62.7854L17.1705 62.8696L17.0272 62.9468L16.914 63.0207L16.7552 63.0966L16.6575 63.1564L16.509 63.229L16.3778 63.2959L16.2364 63.3602L16.0808 63.4161L15.9407 63.474L15.7793 63.5177L15.6539 63.5665L15.4745 63.6122L15.3543 63.6559L15.1557 63.6906L14.8535 63.7633L14.6754 63.7909L14.514 63.8237L14.334 63.8417L13.9869 63.8957L13.7998 63.9073L13.6236 63.9105L13.4533 63.9304L13.2552 63.9401H9.73342V72.33H6.62305V72.3312ZM12.8393 61.1203L13.5086 61.0779L13.7066 61.0515L14.1167 60.9833L14.2781 60.9416L14.4742 60.8978L14.6368 60.8419L14.9416 60.7255L15.0676 60.6645L15.3228 60.5089L15.4302 60.4279L15.5324 60.3462L15.607 60.2614L15.7176 60.1559L15.8089 60.0492L15.8494 59.9547L15.9567 59.7985L16.1097 59.4217L16.1522 59.2784L16.2126 58.9569L16.2383 58.7898L16.2595 58.6104V57.8498L16.23 57.6936L16.2081 57.5123L16.1824 57.3477L16.149 57.2037L16.102 57.0546L15.9368 56.6392L15.8622 56.546L15.787 56.4078L15.7137 56.339L15.6076 56.2246L15.508 56.1108L15.4276 56.0542L15.3048 55.9603L15.1814 55.8761L15.0637 55.8035L14.7738 55.6833L14.6176 55.6151L14.4543 55.563L14.2832 55.5155L14.1167 55.4917L13.8981 55.4344L13.7001 55.4164L13.497 55.3869L13.2932 55.3753L13.0572 55.3663L12.8245 55.3464H12.5725H9.73149V61.1196H12.8393V61.1203Z" fill="#5C2D91"/>
<path d="M9.56138 61.2928H12.5785H12.8408L13.0774 61.2768L13.3076 61.2665L13.5223 61.2517L13.7325 61.2208L13.9428 61.1887L14.1453 61.1546L14.3234 61.1128L14.5117 61.0672L14.695 61.0048L14.8486 60.945L15.0036 60.8846L15.1399 60.8197L15.2755 60.7399L15.4131 60.6557L15.5333 60.567L15.642 60.4783L15.7339 60.3831L15.84 60.2809L15.9403 60.16L16.0065 60.0289L16.0984 59.8997L16.1556 59.7704L16.2142 59.6284L16.2707 59.4882L16.3209 59.3307L16.3498 59.1565L16.3845 58.9874L16.4109 58.8189L16.4334 58.6331V58.4396V58.2429V58.0558V57.8494L16.4012 57.6649L16.3845 57.4952L16.3543 57.3223L16.3202 57.1654L16.2701 57.0053L16.2135 56.8587L16.155 56.7166L16.0978 56.5758L16.0058 56.4434L15.9396 56.3245L15.8393 56.221L15.7333 56.1065L15.6413 55.9998L15.5327 55.9162L15.4124 55.823L15.2826 55.7343L15.1546 55.6546L15.0029 55.5896L14.8441 55.5228L14.6905 55.4572L14.5111 55.3968L14.3298 55.3479L14.1446 55.3196L13.9466 55.2637L13.7197 55.2412L13.5217 55.2142L13.3069 55.2013L13.0671 55.1936L12.8402 55.175L12.5779 55.1679H9.56074V61.2928H9.56138ZM6.79883 72.1592V52.667H12.8781H13.0671L13.2433 52.6811L13.4368 52.6844L13.62 52.6985L13.791 52.7062L13.9698 52.7326H14.1453L14.3208 52.7641L14.479 52.7801L14.6474 52.8162L14.8152 52.838L14.9727 52.8843L15.1289 52.9113L15.2942 52.9653L15.4324 52.9942L15.5976 53.0354L15.7358 53.0836L15.8779 53.144L16.0258 53.1897L16.1679 53.252L16.2894 53.3125L16.4359 53.3684L16.5613 53.4327L16.6918 53.5131L16.8198 53.578L16.9483 53.6442L17.0769 53.7304L17.1836 53.8036L17.3122 53.8834L17.4318 53.9714L17.5302 54.064L17.6228 54.147L17.7455 54.2466L17.851 54.3315L17.9468 54.4543L18.0484 54.5385L18.1467 54.6504L18.2213 54.7449L18.3184 54.8625L18.3782 54.9557L18.4759 55.0631L18.5357 55.1955L18.6148 55.3093L18.6848 55.427L18.742 55.5472L18.7999 55.6558L18.8687 55.7838L18.9221 55.9169L18.9773 56.0345L19.0307 56.176L19.0648 56.3033L19.1059 56.4441L19.1567 56.5765L19.1824 56.7173L19.2133 56.851L19.2589 57.0053V57.1519L19.2892 57.3023L19.3097 57.4553L19.3245 57.6045L19.3387 57.7601L19.3489 57.9131L19.3387 58.0847L19.3489 58.2429L19.3419 58.4055V58.5631L19.3387 58.7193L19.3245 58.8826L19.3097 59.0337L19.2892 59.1674L19.2589 59.33L19.2525 59.4876L19.2159 59.6142L19.1824 59.7505L19.1567 59.899L19.1188 60.0315L19.0519 60.1633L19.0314 60.3008L18.978 60.4262L18.9227 60.5625L18.8693 60.6782L18.8006 60.819L18.7478 60.9335L18.6848 61.0517L18.6276 61.1739L18.5357 61.2768L18.4759 61.3867L18.3782 61.4998L18.3184 61.6059L18.2213 61.7081L18.1467 61.8174L18.0541 61.9248L17.9481 62.029L17.851 62.1209L17.7455 62.2199L17.6228 62.3118L17.5385 62.4076L17.4318 62.4719L17.3 62.5645L17.1914 62.6526L17.0776 62.7252L16.949 62.7934L16.8204 62.8789L16.688 62.9393L16.5722 63.0087L16.4366 63.073L16.3016 63.1418L16.1691 63.2068L16.0271 63.2569L15.8792 63.3148L15.7371 63.3527L15.5989 63.4028L15.4337 63.4453L15.2954 63.4961L15.1302 63.5199L14.9618 63.5591L14.8165 63.5964L14.6487 63.6234L14.4802 63.6574L14.3221 63.6735L14.1466 63.6992L13.9653 63.7256L13.793 63.7378L13.622 63.7404L13.4387 63.7584L13.2452 63.7706H13.0787H12.8801H9.56331V72.1605H6.79883V72.1592Z" fill="#5C2D91"/>
<path d="M22.0996 72.3312V52.4932H24.7599L37.3384 67.3237V52.4932H40.468L40.4699 72.3267H37.7164L25.1862 57.486V72.3312H22.0996Z" fill="#5C2D91"/>
<path d="M22.2734 72.1592V52.667H24.6811L37.5128 67.7958L37.5147 52.667H40.2966V72.1528H37.7963L25.0154 57.015V72.1592H22.2734Z" fill="#5C2D91"/>
<path d="M53.9051 72.6842L53.6865 72.6707L53.0327 72.6328L52.8224 72.6097L52.6051 72.5923L52.3898 72.5615L52.193 72.5357L51.7796 72.4682L51.5771 72.4322L51.3868 72.3892L51.1657 72.3268L50.9779 72.2914L50.7896 72.2464L50.5806 72.1757L50.2174 72.0728L50.0039 71.9816L49.8349 71.9276L49.6452 71.853L49.4594 71.7694L49.2633 71.6922L49.091 71.6151L48.9091 71.5167L48.7529 71.4486L48.551 71.3264L48.2276 71.1599L47.8862 70.9394L47.6091 70.7343L47.3475 70.5595L47.0929 70.3653L46.846 70.1544L46.6101 69.9661L46.369 69.741L46.1407 69.5167L45.7055 69.0634L45.5088 68.8088L45.312 68.5767L45.1262 68.3305L44.9456 68.0521L44.7733 67.7911L44.61 67.532L44.3014 66.9553L43.9163 66.1138L43.807 65.8065L43.5357 64.8948L43.4496 64.5972L43.3994 64.2596L43.337 63.9633L43.3055 63.6373L43.267 63.3364L43.24 63.004L43.2252 62.6704L43.2188 62.3412L43.2252 62.0879L43.2509 61.5974L43.267 61.3364L43.3055 61.0953L43.3338 60.8593L43.3827 60.5983L43.4412 60.3675L43.4714 60.1405L43.5434 59.8795L43.6186 59.6455L43.6739 59.4211L43.9304 58.7005L44.041 58.4606L44.1375 58.2363L44.3638 57.7695L44.4711 57.5548L44.7424 57.1234L44.8633 56.9112L45.161 56.4985L45.305 56.3056L45.4689 56.098L45.6181 55.9154L45.7974 55.7193L46.144 55.3618L46.3375 55.1793L46.5207 54.9948L46.7155 54.8122L46.9379 54.6392L47.1276 54.4779L47.3545 54.2998L47.5461 54.1538L47.993 53.8677L48.2225 53.7231L48.668 53.4601L48.911 53.3496L49.1418 53.228L49.3675 53.1149L49.6214 53.0146L49.8728 52.9265L50.1145 52.8333L50.3749 52.7452L50.625 52.6719L51.1483 52.5389L51.671 52.4283L52.2387 52.3466L52.4965 52.2991L52.7839 52.2624L53.0777 52.238L53.3708 52.2309L53.6608 52.2026L53.9527 52.1885H54.4721L54.6907 52.2026L54.8855 52.2103L55.0958 52.2322L55.279 52.2373L55.4841 52.2489L55.9129 52.2965L56.1289 52.3241L56.3256 52.3396L56.5468 52.3916L56.7487 52.4283L56.937 52.4437L57.1653 52.4971L57.3652 52.5376L57.5722 52.5871L58.4041 52.8102L58.8201 52.9381L59.2373 53.0705L59.6707 53.2422L60.0911 53.3984L61.0503 53.8112V57.2597L60.5714 56.9646L60.3508 56.8669L60.1072 56.7486L59.895 56.6335L59.0059 56.2388L58.7937 56.1353L58.3694 55.9823L58.165 55.8935L57.967 55.8196L57.5523 55.6994L57.3414 55.6203L57.1498 55.5644L56.7596 55.4769L56.5468 55.4191L56.3603 55.3863L56.154 55.3374L55.9707 55.3213L55.7695 55.2815L55.576 55.2468L55.1819 55.1966L55.0045 55.1921L54.7929 55.1741H54.6194L54.4156 55.1632H54.0125L53.8112 55.1741H53.5997L53.4158 55.1921L53.223 55.2191L53.0121 55.2352L52.8134 55.2583L52.6334 55.2873L52.4534 55.331L52.2425 55.367L52.0754 55.412L51.8742 55.4564L51.3386 55.6132L51.201 55.6737L51.0011 55.7457L50.8314 55.8151L50.6649 55.8877L50.4971 55.972L50.1814 56.1417L50.0303 56.2375L49.8857 56.3326L49.6954 56.4368L49.5764 56.5345L49.4228 56.6425L49.2582 56.7563L49.1495 56.8617L48.974 56.9929L48.8525 57.1009L48.7355 57.2301L48.5754 57.3793L48.3228 57.6339L47.9711 58.0582L47.8522 58.199L47.7641 58.3391L47.64 58.496L47.577 58.6175L47.4658 58.793L47.3732 58.9454L47.3115 59.0836L47.2138 59.2572L47.1636 59.3967L47.0807 59.5742L46.8917 60.0666L46.8537 60.237L46.7856 60.4202L46.7496 60.5752L46.6782 60.9255L46.6499 61.1145L46.6101 61.301L46.5901 61.481L46.5606 61.6739L46.5471 61.8475V62.0371L46.5361 62.2557V62.4331L46.5265 62.6369L46.5471 62.8157V63.0188L46.5606 63.1982L46.5888 63.3692L46.6126 63.5537L46.6499 63.737L46.7123 64.1131L46.7496 64.2725L46.7856 64.4589L46.8415 64.6023L47.0035 65.1153L47.0787 65.26L47.1462 65.4374L47.2195 65.5879L47.3044 65.7383L47.3828 65.9209L47.4561 66.0398L47.5538 66.1941L47.6541 66.3748L47.7409 66.4969L47.8464 66.6352L47.9544 66.7625L48.0727 66.936L48.3028 67.1958L48.5548 67.4677L48.6892 67.5905L48.8274 67.732L48.9657 67.8355L49.2376 68.0907L49.3778 68.182L49.6825 68.4044L49.8387 68.5041L49.986 68.6063L50.2971 68.7786L50.454 68.8583L50.6205 68.9335L50.7844 69.0191L50.9432 69.0782L51.1226 69.1598L51.6292 69.3302L51.8034 69.3746L51.97 69.4048L52.1654 69.462L52.3551 69.5032L52.5434 69.543L52.7177 69.5822L52.9035 69.6009L53.0918 69.6105L53.5078 69.6555L53.6859 69.6697H54.3558L54.8392 69.6427L55.0597 69.6028L55.3298 69.5764L55.5863 69.5482L55.8184 69.5083L56.0832 69.4742L56.3166 69.4048L56.5571 69.3456L57.0759 69.1907L57.335 69.1058L57.5915 69.0126L57.9991 68.8468V65.3674L54.6933 65.3551L54.6798 62.4325H61.2149L61.2085 70.951L60.1644 71.3965L59.2341 71.7366L58.7725 71.8761L58.3302 72.0221L58.1033 72.0883L57.8872 72.159L57.6365 72.2098L57.2437 72.3197L56.7892 72.3956L56.6021 72.4483L56.3661 72.4843L56.1835 72.5287L55.9437 72.5428L55.7399 72.5717L55.5284 72.5923L55.3568 72.6206L54.5339 72.6707L54.3307 72.6842H53.9051Z" fill="#5C2D91"/>
<path d="M61.0435 62.6047L61.0384 70.8338L60.5729 71.0344L60.0984 71.2369L59.6278 71.4073L59.1765 71.5751L58.7258 71.7088L58.2752 71.858L58.0598 71.9171L57.8322 71.9936L57.6046 72.0386L57.4028 72.0939L57.197 72.1524L56.9694 72.1904L56.7611 72.2206L56.5586 72.2791L56.3426 72.3106L56.1446 72.3594L55.9382 72.3691L55.7158 72.4012L55.5171 72.4173L55.3313 72.4482L55.1179 72.4604L54.9166 72.4732L54.7154 72.4842L54.5258 72.4977L54.3232 72.5125H54.1304H53.9066L53.7022 72.4977L53.4733 72.4842L53.2592 72.4732L53.0439 72.4604L52.8446 72.4366L52.6228 72.4173L52.4177 72.3871L52.2145 72.3639L52.0088 72.3299L51.8082 72.2971L51.6089 72.263L51.425 72.2206L51.2154 72.1608L51.0136 72.1229L50.8329 72.0766L50.6381 72.0123L50.4504 71.9576L50.2646 71.9056L50.0756 71.8226L49.8904 71.7648L49.7117 71.6921L49.5317 71.6111L49.3285 71.5307L49.162 71.4575L48.9936 71.3662L48.8238 71.2897L48.64 71.1797L48.4747 71.0916L48.3069 71.0074L48.1379 70.8949L47.9803 70.7953L47.7155 70.5953L47.4435 70.4166L47.2005 70.2289L46.9588 70.0206L46.719 69.8322L46.4882 69.6162L46.2638 69.3937L46.0548 69.1732L45.8324 68.9431L45.6472 68.7013L45.4441 68.4641L45.2666 68.2262L45.0931 67.9562L44.915 67.6958L44.7587 67.4419L44.6051 67.1551L44.4566 66.8755L44.3312 66.6029L44.1994 66.3136L44.076 66.0436L43.9705 65.7504L43.8799 65.445L43.7918 65.1486L43.7057 64.8452L43.6189 64.5495L43.5707 64.2351L43.5083 63.929L43.48 63.6224L43.4427 63.3151L43.4144 62.9878L43.4009 62.66L43.3926 62.3379L43.4009 62.0923L43.4144 61.837L43.4228 61.6049L43.4427 61.3491L43.48 61.1273L43.5083 60.8791L43.5552 60.6297L43.6112 60.4072L43.6433 60.1623L43.7127 59.9283L43.7854 59.6955L43.8458 59.4628L43.9275 59.2307L44.0156 58.9851L44.0972 58.7569L44.1994 58.5357L44.2991 58.3043L44.4103 58.0722L44.5215 57.844L44.6282 57.6337L44.7587 57.4229L44.8899 57.2152L45.0127 56.9973L45.1599 56.8005L45.302 56.6025L45.4441 56.4096L45.6048 56.2033L45.7533 56.0239L45.9263 55.8336L46.0979 55.6555L46.2683 55.4819L46.456 55.3084L46.6457 55.12L46.836 54.9387L47.0462 54.7754L47.2436 54.6063L47.4615 54.434L47.6531 54.2964L47.8801 54.146L48.089 54.0097L48.3179 53.8682L48.5313 53.7429L48.757 53.6092L48.9852 53.5056L49.2231 53.3784L49.4455 53.2691L49.686 53.1771L49.9341 53.0929L50.1791 52.9933L50.4305 52.9103L50.6786 52.837L50.9236 52.774L51.1929 52.7052L51.452 52.6538L51.7085 52.5998L51.9818 52.5599L52.2666 52.5156L52.5282 52.4667L52.8079 52.4326L53.0946 52.4082L53.3756 52.4037L53.6778 52.3761L53.9632 52.3574H54.2654H54.4737L54.6781 52.3761L54.88 52.3851L55.0812 52.4037L55.2741 52.4082L55.4798 52.4204L55.7081 52.4494L55.8945 52.4667L56.1079 52.4969L56.3169 52.5098L56.5027 52.5599L56.7181 52.5998L56.9231 52.6197L57.1263 52.6667L57.334 52.7052L57.5313 52.7541L57.9383 52.8653L58.3613 52.9778L58.7696 53.1025L59.1842 53.235L59.6092 53.4021L60.0335 53.5596L60.4617 53.7429L60.8796 53.9255V56.949L60.6648 56.8166L60.4212 56.706L60.1865 56.5935L59.9769 56.4791L59.741 56.3711L59.514 56.2734L59.3064 56.1827L59.0794 56.0779L58.8666 55.9776L58.6455 55.8947L58.4288 55.8175L58.2347 55.7352L58.0302 55.6555L57.8303 55.6009L57.6008 55.5327L57.4028 55.4588L57.2028 55.3984L56.9977 55.3489L56.7984 55.3084L56.592 55.2511L56.394 55.2158L56.1922 55.1688L55.9903 55.1489L55.8077 55.1136L55.6052 55.075L55.3879 55.0467L55.2021 55.0248L55.0092 55.0203L54.8125 54.9985H54.6209L54.4261 54.9888H54.2184H54.014L53.8076 54.9985H53.6013L53.3994 55.0203L53.2007 55.0467L52.9989 55.0628L52.7944 55.0885L52.6041 55.12L52.4177 55.1611L52.2145 55.1965L52.0339 55.2428L51.841 55.2871L51.661 55.3373L51.4945 55.3861L51.2894 55.4466L51.1312 55.5186L50.9473 55.5829L50.7693 55.6529L50.5957 55.7333L50.4247 55.8175L50.2749 55.8947L50.1026 55.9885L49.9412 56.0876L49.7914 56.1898L49.614 56.2849L49.4712 56.3961L49.3253 56.5022L49.162 56.6122L49.0321 56.7362L48.8708 56.8526L48.7422 56.9709L48.6097 57.113L48.4593 57.2493L48.3333 57.3772L48.1976 57.5161L48.0826 57.655L47.9611 57.8035L47.8383 57.9481L47.7213 58.0851L47.619 58.2432L47.5052 58.3898L47.4268 58.5383L47.3214 58.7003L47.2249 58.8578L47.1568 59.0089L47.0642 59.1716L47.0044 59.3368L46.9247 59.4982L46.8578 59.6717L46.7974 59.8402L46.7338 60.006L46.6875 60.1983L46.6245 60.3551L46.5801 60.5345L46.5454 60.719L46.5094 60.8939L46.4785 61.0881L46.4425 61.2655L46.4181 61.4603L46.3904 61.6455L46.3763 61.837V62.037L46.3647 62.2446V62.433L46.3544 62.6285L46.3763 62.831V63.0187L46.3904 63.2129L46.4181 63.3961L46.4425 63.5748L46.4785 63.769L46.5094 63.9432L46.5454 64.1412L46.5801 64.3071L46.6193 64.4929L46.6797 64.6613L46.7338 64.8355L46.7871 65.0046L46.8411 65.1737L46.9247 65.3396L46.9877 65.5003L47.0642 65.6642L47.1568 65.8243L47.2249 65.9889L47.3085 66.1271L47.4127 66.2853L47.5046 66.4602L47.6017 66.5984L47.7078 66.7379L47.828 66.8755L47.9341 67.0317L48.0485 67.168L48.1745 67.3088L48.2979 67.4483L48.4304 67.5859L48.5712 67.7164L48.7023 67.854L48.8598 67.9742L48.9852 68.0906L49.1234 68.2185L49.2835 68.3265L49.432 68.4358L49.5837 68.5425L49.7458 68.6493L49.8904 68.7476L50.0556 68.8408L50.2157 68.9251L50.3764 69.0112L50.5475 69.0916L50.7075 69.1732L50.8831 69.2394L51.0547 69.3166L51.2206 69.3744L51.4057 69.4355L51.5722 69.4921L51.7606 69.5403L51.9374 69.5744L52.1168 69.6265L52.3199 69.674L52.5122 69.712L52.6832 69.7505L52.8831 69.7718L53.0831 69.7827L53.2869 69.8058L53.4862 69.8296L53.6778 69.8405H53.9066H54.1092H54.3573L54.5862 69.8322L54.8498 69.8155L55.0909 69.773L55.3467 69.7505L55.6052 69.7235L55.8514 69.6773L56.1079 69.6451L56.3651 69.5712L56.6023 69.512L56.8634 69.4355L57.1263 69.3597L57.3912 69.2716L57.6528 69.1758L57.9158 69.0684L58.1742 68.9668V65.1943L54.8691 65.1821L54.8569 62.6047H61.0435Z" fill="#5C2D91"/>
<path d="M9.11647 81.7903C8.80916 82.0739 8.43306 82.2063 7.96632 82.2012C7.71751 82.2069 7.50278 82.1645 7.31956 82.0976C7.13183 82.0269 6.96274 81.9009 6.79688 81.7325L7.28805 81.2529C7.38385 81.3512 7.48478 81.4303 7.58186 81.4779C7.66994 81.5255 7.81395 81.546 7.96632 81.546C8.24405 81.546 8.45428 81.4676 8.62079 81.296C8.76159 81.1333 8.83552 80.8999 8.83552 80.5772V77.3428H9.56586L9.57422 80.6421C9.57358 81.1243 9.42442 81.5062 9.11647 81.7903Z" fill="#5C2D91"/>
<path d="M13.4941 82.1604V77.3418H16.5762V77.9956L14.2283 78.0033L14.2341 79.4087H16.2291V80.0658L14.2341 80.0555V81.4962L16.5762 81.5059V82.1642L13.4941 82.1604Z" fill="#5C2D91"/>
<path d="M23.9939 82.1607L23.3549 82.1568L22.386 78.7822L21.403 82.1607H20.7717L19.5039 77.3421H20.2844L21.1202 80.7861L22.0845 77.3389L22.685 77.3421L23.6545 80.7861L24.4851 77.3389L25.2527 77.3421L23.9939 82.1607Z" fill="#5C2D91"/>
<path d="M28.0371 82.1642V77.3418H31.1205V78.0033H28.7713V79.4049H30.7681V80.0555L28.7713 80.0658L28.7739 81.4962L31.1205 81.5059V82.1642H28.0371Z" fill="#5C2D91"/>
<path d="M34.1934 82.1648L34.1985 77.3423L34.9308 77.334V81.4968H37.2523V82.161L34.1934 82.1648Z" fill="#5C2D91"/>
<path d="M40.3945 82.1642V77.3418H41.1274V81.5059L43.4483 81.4962L43.4451 82.1642H40.3945Z" fill="#5C2D91"/>
<path d="M46.3047 82.1607V77.3389L49.3797 77.3421V78.0036H47.0305L47.028 79.409H49.0312V80.0558H47.0305V81.4966H49.3797V82.1646L46.3047 82.1607Z" fill="#5C2D91"/>
<path d="M54.6844 82.1648L53.6705 80.1307L52.7512 80.1275V82.1655L52.0215 82.161V77.3431L53.8859 77.3398C54.3391 77.3398 54.6966 77.4684 54.9692 77.7327C55.2437 77.9969 55.3807 78.3389 55.3807 78.7504C55.3807 79.0853 55.299 79.3541 55.1177 79.581C54.9345 79.8079 54.7146 79.9597 54.4259 80.022L55.5272 82.161L54.6844 82.1648ZM54.4349 78.2007C54.2742 78.0618 54.0781 78.0033 53.8364 78.0033H52.7544L52.7518 79.5186L53.8364 79.4981C54.0871 79.4981 54.2877 79.4486 54.4349 79.3136C54.586 79.1824 54.6497 78.9947 54.6497 78.7549C54.6503 78.5273 54.5751 78.3396 54.4349 78.2007Z" fill="#5C2D91"/>
<path d="M60.5679 81.8252C60.242 82.0741 59.8337 82.2071 59.3181 82.2071C58.9427 82.2071 58.6238 82.157 58.3596 82.0573C58.0818 81.9525 57.8317 81.7905 57.6035 81.5662L58.0908 81.0853C58.2657 81.2531 58.4489 81.3759 58.6354 81.4337C58.8295 81.5057 59.0687 81.534 59.3284 81.5456C59.6454 81.5456 59.882 81.48 60.0652 81.3514C60.2401 81.2216 60.3191 81.0448 60.3191 80.8088C60.323 80.5851 60.2529 80.416 60.1333 80.3074C60.0716 80.2501 59.9977 80.2038 59.9328 80.1781C59.8575 80.1447 59.7431 80.1267 59.5991 80.1016L59.3181 80.0656L59.0391 80.0206C58.6354 79.9647 58.3345 79.8361 58.1249 79.6342C57.8857 79.4086 57.7732 79.0987 57.7732 78.7091C57.7732 78.2912 57.9102 77.9524 58.1995 77.692C58.4869 77.4342 58.8848 77.2966 59.3863 77.2999C59.7032 77.2999 59.9842 77.3416 60.2163 77.4259C60.4464 77.5088 60.6747 77.6509 60.8778 77.8508L60.4104 78.3111C60.2671 78.1736 60.1211 78.0816 59.9424 78.0148C59.7772 77.9691 59.574 77.9408 59.3619 77.9306C59.0841 77.9415 58.8694 78.0032 58.7125 78.1485C58.5589 78.2841 58.4856 78.4622 58.4856 78.693C58.4856 78.873 58.5422 79.0273 58.6585 79.1321C58.7922 79.2446 58.9678 79.3192 59.2127 79.352L59.4917 79.4047L59.7547 79.4478C59.9752 79.4658 60.152 79.5185 60.2838 79.5796C60.431 79.6342 60.5512 79.7062 60.6483 79.8065C60.9132 80.0206 61.0443 80.353 61.0443 80.7863C61.0443 81.2222 60.8887 81.5732 60.5679 81.8252Z" fill="#5C2D91"/>
<path d="M45.5851 0C41.3399 0 37.3852 1.1968 33.9997 3.24452C30.6179 1.1968 26.6616 0 22.4165 0C10.0367 0 0 10.0133 0 22.3674C0 34.7203 10.0367 44.7368 22.4165 44.7368C26.6616 44.7368 30.6179 43.5347 33.9997 41.4891C37.3858 43.5347 41.3399 44.7368 45.5851 44.7368C57.9643 44.7368 68 34.7203 68 22.3674C68 10.0139 57.9643 0 45.5851 0ZM22.4165 42.1846C11.4481 42.1846 2.55503 33.3115 2.55503 22.3679C2.55503 11.4222 11.4481 2.54749 22.4165 2.54749C25.7639 2.54749 28.9119 3.38467 31.6795 4.84219C26.5021 8.93975 23.1691 15.2611 23.1691 22.3679C23.1691 29.4741 26.4995 35.7939 31.6795 39.892C28.9114 41.3511 25.7639 42.1846 22.4165 42.1846ZM33.9997 6.29072C39.0059 9.89222 42.2759 15.7419 42.2759 22.3674C42.2759 28.9928 39.0054 34.8436 33.9997 38.4414C28.9951 34.8436 25.7257 28.9923 25.7257 22.3674C25.7252 15.7419 28.9951 9.89169 33.9997 6.29072ZM45.5851 42.1846C42.2383 42.1846 39.0891 41.3511 36.3216 39.8915C41.5005 35.7939 44.832 29.4736 44.832 22.3674C44.832 15.2606 41.5005 8.93922 36.3216 4.84166C39.0891 3.38414 42.2372 2.54696 45.5851 2.54696C56.554 2.54696 65.4439 11.4217 65.4439 22.3674C65.4439 33.3109 56.554 42.1846 45.5851 42.1846Z" fill="url(#paint0_linear_9046_361)"/>
<defs>
<linearGradient id="paint0_linear_9046_361" x1="33.9997" y1="44.7371" x2="33.9997" y2="9.59951e-05" gradientUnits="userSpaceOnUse">
<stop stop-color="#DFAE26"/>
<stop offset="0.2251" stop-color="#925924"/>
<stop offset="0.8159" stop-color="#FBE284"/>
</linearGradient>
</defs>
</svg>
